<?xml version="1.0" encoding="UTF-8"?>
<svg width="20px" height="20px" viewBox="0 0 20 20" version="1.1" xmlns="http://www.w3.org/2000/svg" xmlns:xlink="http://www.w3.org/1999/xlink">
    <!-- Generator: Sketch 56.3 (81716) - https://sketch.com -->
    <title>Icon - Music</title>
    <desc>Created with Sketch.</desc>
    <g id="Icon---Music" stroke="none" stroke-width="1" fill="none" fill-rule="evenodd">
        <path d="M6.35555556,13.1446039 L6.35555556,3.875 L16,2 L16,12.9375 C16,14.1456229 14.8160419,15.125 13.3555556,15.125 C11.8950692,15.125 10.7111111,14.1456229 10.7111111,12.9375 C10.7111111,11.7293771 11.8950692,10.75 13.3555556,10.75 C14.0081119,10.75 14.605463,10.9455199 15.0666667,11.2696039 L15.0666667,4.68145161 L7.28888889,6.19354839 L7.28888889,14.8125 C7.28888889,16.0206229 6.10493078,17 4.64444444,17 C3.18395811,17 2,16.0206229 2,14.8125 C2,13.6043771 3.18395811,12.625 4.64444444,12.625 C5.29700079,12.625 5.89435187,12.8205199 6.35555556,13.1446039 L6.35555556,13.1446039 Z" id="Path" fill="#3C3C3C"></path>
    </g>
</svg>