<?xml version="1.0" encoding="UTF-8"?>
<svg width="20px" height="20px" viewBox="0 0 20 20" version="1.1" xmlns="http://www.w3.org/2000/svg" xmlns:xlink="http://www.w3.org/1999/xlink">
    <!-- Generator: Sketch 56.3 (81716) - https://sketch.com -->
    <title>Icon - Info</title>
    <desc>Created with Sketch.</desc>
    <g id="Icon---Info" stroke="none" stroke-width="1" fill="none" fill-rule="evenodd">
        <path d="M10,19 C5.02943725,19 1,14.9705627 1,10 C1,5.02943725 5.02943725,1 10,1 C14.9705627,1 19,5.02943725 19,10 C19,14.9705627 14.9705627,19 10,19 Z M10,17 C13.8659932,17 17,13.8659932 17,10 C17,6.13400675 13.8659932,3 10,3 C6.13400675,3 3,6.13400675 3,10 C3,13.8659932 6.13400675,17 10,17 Z M9,9 L11,9 L11,14 L9,14 L9,9 Z M9,6 L11,6 L11,8 L9,8 L9,6 Z" id="Shape" fill="#3C3C3C" fill-rule="nonzero"></path>
    </g>
</svg>