<?xml version="1.0" encoding="UTF-8"?>
<svg width="20px" height="20px" viewBox="0 0 20 20" version="1.1" xmlns="http://www.w3.org/2000/svg" xmlns:xlink="http://www.w3.org/1999/xlink">
    <!-- Generator: Sketch 56.3 (81716) - https://sketch.com -->
    <title>Icon - Bottom</title>
    <desc>Created with Sketch.</desc>
    <g id="Icon---Bottom" stroke="none" stroke-width="1" fill="none" fill-rule="evenodd">
        <path d="M9.36897805,2.25804107 C9.72885213,1.91398631 10.271158,1.91398631 10.6310321,2.25804107 L16.6812056,8.04226149 C16.8839814,8.23612372 17,8.51399708 17,8.80579838 C17,9.3700003 16.5747504,9.82737633 16.0501785,9.82737633 L3.94983164,9.82737633 C3.67852672,9.82737633 3.42017141,9.70259284 3.23992623,9.48449783 C2.89141962,9.06280805 2.92673467,8.41709685 3.31880461,8.04226149 L9.36897805,2.25804107 Z M9.36897805,10.4306647 C9.72885213,10.08661 10.271158,10.08661 10.6310321,10.4306647 L16.6812056,16.2148852 C16.8839814,16.4087474 17,16.6866207 17,16.978422 C17,17.542624 16.5747504,18 16.0501785,18 L3.94983164,18 C3.67852672,18 3.42017141,17.8752165 3.23992623,17.6571215 C2.89141962,17.2354317 2.92673467,16.5897205 3.31880461,16.2148852 L9.36897805,10.4306647 Z" id="Shape" fill="#3C3C3C" transform="translate(10.000000, 10.000000) scale(1, -1) translate(-10.000000, -10.000000) "></path>
    </g>
</svg>