<?xml version="1.0" encoding="UTF-8"?>
<svg width="20px" height="20px" viewBox="0 0 20 20" version="1.1" xmlns="http://www.w3.org/2000/svg" xmlns:xlink="http://www.w3.org/1999/xlink">
    <!-- Generator: Sketch 56.3 (81716) - https://sketch.com -->
    <title>Icon - Zoom</title>
    <desc>Created with Sketch.</desc>
    <g id="Icon---Zoom" stroke="none" stroke-width="1" fill="none" fill-rule="evenodd">
        <path d="M9.2037387,8.17862322 L11.2619498,8.17862322 L11.2619498,9.20839375 L9.2037387,9.20839375 L9.2037387,11.2679348 L8.17463317,11.2679348 L8.17463317,9.20839375 L6.11642212,9.20839375 L6.11642212,8.17862322 L8.17463317,8.17862322 L8.17463317,6.11908215 L9.2037387,6.11908215 L9.2037387,8.17862322 Z M13.0469418,13.7718988 C11.8763475,14.7786084 10.3537716,15.387017 8.68918594,15.387017 C4.99485056,15.387017 2,12.3902311 2,8.69350849 C2,4.99678583 4.99485056,2 8.68918594,2 C12.3835213,2 15.3783719,4.99678583 15.3783719,8.69350849 C15.3783719,10.3538982 14.7741987,11.8730845 13.7738369,13.0429482 L18,17.2718423 L17.2723125,18 L13.0469418,13.7718988 Z M8.68918594,14.3572464 C11.815162,14.3572464 14.3492663,11.8215046 14.3492663,8.69350849 C14.3492663,5.56551239 11.815162,3.02977054 8.68918594,3.02977054 C5.56320985,3.02977054 3.02910553,5.56551239 3.02910553,8.69350849 C3.02910553,11.8215046 5.56320985,14.3572464 8.68918594,14.3572464 Z" id="Shape" fill="#3C3C3C"></path>
    </g>
</svg>