<?xml version="1.0" encoding="UTF-8"?>
<svg width="20px" height="20px" viewBox="0 0 20 20" version="1.1" xmlns="http://www.w3.org/2000/svg" xmlns:xlink="http://www.w3.org/1999/xlink">
    <!-- Generator: Sketch 56.3 (81716) - https://sketch.com -->
    <title>Icon - Pause</title>
    <desc>Created with Sketch.</desc>
    <g id="Icon---Pause" stroke="none" stroke-width="1" fill="none" fill-rule="evenodd">
        <path d="M5,2 L8,2 C8.55228475,2 9,2.44771525 9,3 L9,17 C9,17.5522847 8.55228475,18 8,18 L5,18 C4.44771525,18 4,17.5522847 4,17 L4,3 C4,2.44771525 4.44771525,2 5,2 Z M12,2 L15,2 C15.5522847,2 16,2.44771525 16,3 L16,17 C16,17.5522847 15.5522847,18 15,18 L12,18 C11.4477153,18 11,17.5522847 11,17 L11,3 C11,2.44771525 11.4477153,2 12,2 Z" id="Combined-Shape" fill="#3C3C3C"></path>
    </g>
</svg>