<?xml version="1.0" encoding="UTF-8"?>
<svg width="20px" height="20px" viewBox="0 0 20 20" version="1.1" xmlns="http://www.w3.org/2000/svg" xmlns:xlink="http://www.w3.org/1999/xlink">
    <!-- Generator: Sketch 56.3 (81716) - https://sketch.com -->
    <title>Icon - Volume</title>
    <desc>Created with Sketch.</desc>
    <g id="Icon---Volume" stroke="none" stroke-width="1" fill="none" fill-rule="evenodd">
        <path d="M15,14.506676 C16.7659048,13.7398363 18,11.9885282 18,9.9507439 C18,7.91295957 16.7659048,6.16165146 15,5.39481178 L15,3.28164517 C17.8914889,4.13693336 20,6.79910942 20,9.9507439 C20,13.1023784 17.8914889,15.7645544 15,16.6198426 L15,14.506676 Z M13,12.9324033 L13,10.9446304 C13.5522847,10.9446304 14,10.4996522 14,9.9507439 C14,9.40183557 13.5522847,8.95685744 13,8.95685744 L13,6.96908452 C14.6568542,6.96908452 16,8.30401889 16,9.9507439 C16,11.5974689 14.6568542,12.9324033 13,12.9324033 Z M5,5.97519806 L10.4187618,2.12831663 C10.8681744,1.80927014 11.4927245,1.91272545 11.8137335,2.35939054 C11.9348769,2.52795443 12,2.72992654 12,2.93707531 L12,16.9492252 C12,17.4981335 11.5522847,17.9431117 11,17.9431117 C10.7894049,17.9431117 10.5841851,17.8770321 10.4135987,17.7542938 L5,13.8591668 L2,13.8591668 C1.44771525,13.8591668 1,13.4141886 1,12.8652803 L1,6.96908452 C1,6.42017618 1.44771525,5.97519806 2,5.97519806 L5,5.97519806 Z" id="Shape" fill="#3C3C3C" fill-rule="nonzero"></path>
    </g>
</svg>