<svg version="1.0" xmlns="http://www.w3.org/2000/svg" width="100%" height="-12" viewBox="0 0 700.000000 868.000000" preserveAspectRatio="xMidYMid meet">
<metadata>
Created by potrace 1.12, written by Peter Selinger 2001-2015
</metadata>
<g transform="translate(0.000000,868.000000) scale(0.100000,-0.100000)" fill="#000000" stroke="none">
<path d="M3355 7844 c-100 -16 -241 -48 -307 -70 -83 -27 -140 -63 -204 -128
-61 -63 -120 -108 -202 -155 -40 -23 -109 -66 -153 -96 -44 -30 -149 -88 -233
-129 -172 -85 -241 -132 -360 -246 -140 -135 -175 -231 -183 -500 -5 -184 8
-276 52 -365 14 -27 79 -117 144 -198 66 -82 135 -179 155 -217 43 -81 78
-209 106 -382 23 -146 41 -200 101 -301 54 -91 121 -163 179 -192 25 -12 108
-41 185 -64 158 -47 284 -103 338 -150 55 -49 257 -356 306 -466 50 -113 124
-329 128 -376 12 -128 -70 -239 -175 -239 -33 0 -81 17 -195 71 -84 39 -164
82 -179 96 -15 15 -54 62 -85 105 -65 88 -236 234 -389 333 -49 32 -120 88
-159 125 -38 37 -113 96 -165 130 -105 70 -375 327 -415 395 -13 22 -42 83
-64 135 -22 52 -76 174 -121 270 -101 217 -109 239 -171 480 -27 107 -62 227
-76 265 -71 181 -249 253 -425 173 -87 -40 -131 -87 -206 -222 -94 -168 -108
-204 -141 -346 -16 -69 -45 -186 -64 -260 -46 -176 -71 -353 -62 -434 4 -33
22 -113 40 -176 18 -63 43 -157 55 -209 23 -102 42 -145 100 -231 21 -31 65
-112 98 -180 33 -69 81 -150 107 -180 25 -30 69 -92 97 -138 99 -163 216 -290
407 -441 47 -36 126 -103 176 -148 142 -126 300 -250 354 -277 27 -14 104 -41
172 -61 67 -20 138 -43 157 -50 18 -8 78 -58 132 -110 106 -102 136 -120 275
-160 156 -46 215 -91 215 -167 0 -55 -31 -95 -99 -127 -51 -24 -66 -26 -171
-25 -63 1 -202 11 -308 23 -254 28 -326 27 -446 -4 -117 -30 -197 -62 -274
-108 -31 -19 -151 -82 -267 -141 -220 -111 -329 -184 -458 -305 -78 -74 -126
-163 -172 -316 -15 -49 -49 -139 -75 -200 -58 -132 -72 -201 -72 -362 0 -193
37 -284 130 -325 91 -41 220 -8 332 83 165 134 312 238 366 259 54 21 78 23
274 25 315 3 399 22 680 155 197 93 416 176 520 198 62 13 92 13 175 4 194
-22 237 -52 381 -268 108 -163 130 -211 150 -336 33 -205 83 -245 300 -236
134 6 183 25 306 121 129 99 242 176 295 199 60 26 128 26 213 -1 36 -12 92
-21 126 -21 70 0 106 16 268 119 143 91 196 114 286 119 144 8 337 -59 404
-141 18 -23 58 -82 87 -132 66 -113 153 -205 222 -236 74 -34 220 -34 292 -1
230 106 286 436 128 761 -55 114 -119 183 -213 229 -84 40 -152 51 -385 58
-104 3 -207 10 -228 16 -55 13 -104 63 -119 119 -25 98 43 267 169 419 196
237 254 325 323 491 65 155 75 189 94 318 11 69 28 132 52 190 69 164 153 427
188 586 l34 160 -3 455 -2 455 -32 100 c-32 99 -33 103 -41 385 -5 157 -17
350 -26 430 -9 79 -14 172 -11 205 10 102 55 255 111 375 30 63 57 127 60 142
17 76 -49 182 -138 224 -89 41 -145 30 -299 -58 -113 -64 -144 -92 -212 -187
-30 -42 -123 -147 -207 -233 -146 -149 -155 -157 -201 -163 -58 -9 -96 5 -136
50 -43 49 -54 94 -49 194 7 138 40 237 115 350 35 53 68 114 74 136 24 87 -9
238 -74 339 -55 87 -184 242 -239 287 -29 24 -92 78 -140 121 -48 42 -107 85
-130 97 -24 11 -92 27 -153 36 -187 26 -240 49 -374 164 -112 95 -167 121
-381 178 -133 35 -281 50 -365 37z m241 -355 c43 -26 58 -45 92 -114 80 -162
94 -283 53 -432 -40 -142 -103 -212 -212 -235 -112 -23 -220 37 -295 165 -49
83 -74 165 -74 240 0 54 5 70 33 115 61 98 149 213 183 240 66 53 153 62 220
21z m954 -533 c35 -15 76 -38 91 -52 39 -38 68 -113 81 -209 22 -159 -20 -250
-150 -328 -112 -68 -187 -92 -240 -78 -57 16 -132 78 -180 151 -74 111 -71
178 18 348 94 179 127 206 245 198 45 -3 95 -14 135 -30z m-1823 -171 c63 -29
127 -93 195 -193 141 -209 152 -332 33 -391 -38 -20 -68 -25 -151 -29 -189 -8
-297 28 -405 138 -97 98 -134 193 -115 293 18 97 194 205 336 206 38 1 71 -7
107 -24z m1625 -861 c27 -9 69 -35 97 -60 94 -85 104 -176 34 -326 -50 -104
-91 -148 -168 -178 -90 -35 -222 -34 -290 1 -87 44 -128 137 -129 294 -1 113
18 168 79 224 39 36 71 50 145 65 42 8 182 -4 232 -20z m-1150 -64 c98 -46
147 -141 156 -302 4 -91 3 -101 -23 -153 -36 -74 -79 -103 -171 -114 -138 -17
-273 15 -341 81 -57 55 -77 118 -78 238 0 90 3 111 22 147 33 61 109 109 203
127 59 11 185 -2 232 -24z m2609 -323 c19 -12 45 -44 59 -72 l25 -50 -1 -320
c-1 -176 -3 -561 -5 -855 -5 -523 -5 -537 -28 -625 -27 -101 -30 -184 -17
-390 13 -197 -1 -242 -119 -385 -25 -30 -62 -84 -82 -120 -68 -124 -122 -164
-220 -163 -112 1 -219 73 -243 164 -12 45 -3 122 30 259 68 276 68 436 -1 970
-11 88 -11 103 10 200 40 184 45 240 97 925 14 180 74 306 190 401 97 80 235
108 305 61z m-1846 -609 c101 -29 122 -32 250 -32 131 0 146 2 233 32 104 36
148 39 198 16 101 -48 116 -145 93 -609 -15 -299 0 -807 31 -998 25 -155 37
-349 28 -439 -14 -149 -115 -229 -209 -165 -46 31 -73 82 -115 217 -66 214
-85 246 -192 327 -42 31 -94 75 -115 98 -74 75 -175 230 -240 365 -52 110 -79
152 -142 225 -87 100 -128 178 -170 322 -14 50 -42 130 -61 177 -57 142 -46
215 51 351 72 102 133 144 210 145 21 0 89 -14 150 -32z m-2504 -479 c101 -23
154 -55 216 -128 24 -27 79 -75 124 -107 44 -31 97 -79 117 -105 21 -27 54
-72 75 -99 24 -32 69 -70 124 -106 47 -30 108 -76 137 -103 69 -64 97 -82 196
-127 133 -60 192 -98 269 -174 76 -74 141 -113 256 -150 64 -21 77 -30 160
-115 50 -50 113 -109 142 -129 65 -46 100 -90 147 -185 21 -41 55 -95 75 -120
86 -104 99 -148 55 -200 -35 -42 -114 -64 -229 -64 -121 0 -166 20 -260 117
-42 44 -95 86 -126 102 -89 44 -150 87 -226 157 -56 51 -103 82 -220 141 -119
60 -164 89 -226 146 -45 41 -107 85 -150 106 -99 50 -149 86 -243 173 -44 42
-108 100 -143 130 -34 29 -87 86 -117 126 -30 40 -73 85 -95 99 -105 70 -148
126 -197 261 -16 44 -44 116 -62 160 -26 64 -31 89 -27 129 8 90 60 105 228
65z m1017 -2472 c76 -28 120 -104 103 -179 -21 -91 -147 -229 -258 -280 -34
-16 -156 -52 -270 -79 -464 -112 -541 -132 -608 -160 -167 -72 -263 -41 -336
107 -39 79 -45 167 -16 222 23 42 93 87 160 103 115 27 199 61 279 113 141 92
198 108 453 126 83 6 186 17 230 25 100 16 220 17 263 2z"></path>
</g>
</svg>