<?xml version="1.0" encoding="UTF-8"?>
<svg width="347px" height="11px" viewBox="0 0 347 11" version="1.1" xmlns="http://www.w3.org/2000/svg" xmlns:xlink="http://www.w3.org/1999/xlink">
    <!-- Generator: Sketch 56.3 (81716) - https://sketch.com -->
    <title>Divider - Big</title>
    <desc>Created with Sketch.</desc>
    <g id="Divider---Big" stroke="none" stroke-width="1" fill="none" fill-rule="evenodd">
        <g id="Group-Copy" fill="#CCCECF">
            <path d="M157.586447,8.77327617 C168.616741,7.37656198 176.273435,5.32907052e-15 194,5.32907052e-15 C196.209139,5.32907052e-15 198,1.790861 198,4 C198,6.209139 196.209139,8 194,8 C191.790861,8 190,6.209139 190,4 C190,3.34703639 190.156457,2.73061516 190.433926,2.1861798 C178.372529,3.47341643 172.667381,11 154,11 C151.790861,11 150,9.209139 150,7 C150,4.790861 151.790861,3 154,3 C156.209139,3 158,4.790861 158,7 C158,7.63680755 157.85119,8.23885865 157.586447,8.77327617 L157.586447,8.77327617 Z" id="Path"></path>
            <polygon id="Rectangle-Copy" points="0 5 139 4 139 7 0 6"></polygon>
            <polygon id="Rectangle-Copy-2" transform="translate(277.500000, 5.500000) scale(-1, 1) translate(-277.500000, -5.500000) " points="208 5 347 4 347 7 208 6"></polygon>
        </g>
    </g>
</svg>