<?xml version="1.0" encoding="UTF-8"?>
<svg width="48px" height="11px" viewBox="0 0 48 11" version="1.1" xmlns="http://www.w3.org/2000/svg" xmlns:xlink="http://www.w3.org/1999/xlink">
    <!-- Generator: Sketch 56.3 (81716) - https://sketch.com -->
    <title>Divider - Small</title>
    <desc>Created with Sketch.</desc>
    <g id="Divider---Small" stroke="none" stroke-width="1" fill="none" fill-rule="evenodd">
        <path d="M7.58644706,8.77327617 C18.6167405,7.37656198 26.2734351,0 44,0 C46.209139,0 48,1.790861 48,4 C48,6.209139 46.209139,8 44,8 C41.790861,8 40,6.209139 40,4 C40,3.34703639 40.1564566,2.73061516 40.4339262,2.1861798 C28.3725286,3.47341643 22.6673807,11 4,11 C1.790861,11 0,9.209139 0,7 C0,4.790861 1.790861,3 4,3 C6.209139,3 8,4.790861 8,7 C8,7.63680755 7.85118997,8.23885865 7.58644706,8.77327617 L7.58644706,8.77327617 Z" id="Path" fill="#222222"></path>
    </g>
</svg>