<?xml version="1.0" encoding="UTF-8"?>
<svg width="216px" height="38px" viewBox="0 0 216 38" version="1.1" xmlns="http://www.w3.org/2000/svg" xmlns:xlink="http://www.w3.org/1999/xlink">
    <!-- Generator: Sketch 56.3 (81716) - https://sketch.com -->
    <title>Group 3</title>
    <desc>Created with Sketch.</desc>
    <g id="Desktop" stroke="none" stroke-width="1" fill="none" fill-rule="evenodd">
        <g id="Group-3" transform="translate(0.000000, -2.000000)">
            <text id="Digital-Welty-Lab" font-family="MillerDisplay-Bold, Miller Display" font-size="16" font-weight="bold" line-spacing="31" letter-spacing="0.8888888" fill="#222222">
                <tspan x="40" y="19">DIGITAL WELTY LA</tspan>
                <tspan x="205.358221" y="19" letter-spacing="0.8366013">B</tspan>
            </text>
            <text id="at-Millsaps-College" font-family="MillerDisplay-SemiBoldItalic, Miller Display" font-size="12" font-style="italic" font-weight="500" line-spacing="31" letter-spacing="0.375" fill="#6E6F6F">
                <tspan x="40" y="31">at Millsaps Colleg</tspan>
                <tspan x="138.598" y="31" letter-spacing="0.3461539">e</tspan>
            </text>
            <path d="M15.0351017,2.02289606 C15.450297,1.95863965 16.1818315,2.03278167 16.8392241,2.2057797 C17.8969835,2.48751936 18.1688376,2.61603219 18.7224313,3.08559829 C19.3847666,3.65402041 19.6467351,3.76770483 20.5710389,3.89621766 C20.8725497,3.94070287 21.2086602,4.01978768 21.3272874,4.07415849 C21.4409718,4.13347211 21.7325971,4.34601255 21.9698515,4.55361019 C22.207106,4.76615064 22.5185025,5.03306189 22.6618437,5.15168912 C22.9336978,5.37411517 23.5713191,6.14024933 23.8431731,6.57027302 C24.1644552,7.06949592 24.3275676,7.81585888 24.2089404,8.24588257 C24.1792836,8.35462419 24.0161712,8.65613505 23.8431731,8.91810351 C23.4724631,9.47664002 23.3093506,9.96597733 23.274751,10.6480839 C23.250037,11.142364 23.3044078,11.36479 23.5169483,11.6069873 C23.7146603,11.8294133 23.9024868,11.8986125 24.1891692,11.8541273 C24.4165381,11.8244705 24.4610233,11.7849281 25.1826722,11.0484508 C25.5978675,10.6233699 26.057548,10.1043758 26.205832,9.89677811 C26.5419425,9.42721201 26.6951693,9.28881358 27.2537059,8.97247432 C28.0148972,8.53750783 28.2916941,8.48313702 28.7316034,8.68579186 C29.1715127,8.8933895 29.4977375,9.41732641 29.4137099,9.79297929 C29.3988815,9.8671213 29.2654259,10.1834606 29.1171418,10.494857 C28.840345,11.0879932 28.6179189,11.8442417 28.5684909,12.3484074 C28.5536625,12.5115199 28.5783765,12.9712004 28.6228617,13.3616816 C28.6673469,13.7571057 28.7266606,14.7110663 28.7513746,15.4870861 C28.790917,16.880956 28.7958598,16.9007272 28.9540294,17.3900645 L29.112199,17.8843446 L29.1220846,20.1333191 L29.136913,22.3822935 L28.9688578,23.1731417 C28.7958598,23.9590471 28.3806645,25.2590037 28.0396112,26.0696231 C27.920984,26.3563056 27.8369564,26.667702 27.7825856,27.0087553 C27.6886723,27.6463766 27.6392443,27.8144319 27.3179623,28.580566 C26.976909,29.401071 26.6902265,29.8360375 25.7214375,31.0074813 C25.0986446,31.7587871 24.7625341,32.5941205 24.8861042,33.078515 C24.9602462,33.3553118 25.2024434,33.6024519 25.4742975,33.6667083 C25.5780963,33.6963651 26.0872048,33.7309647 26.6012561,33.7457931 C27.7529288,33.7803927 28.0890392,33.8347635 28.5042345,34.0324756 C28.9688578,34.2598444 29.2851971,34.6008977 29.5570511,35.164377 C30.3380137,36.7707873 30.0612168,38.4019117 28.9243726,38.9258486 C28.5684909,39.088961 27.846842,39.088961 27.4810747,38.9209058 C27.1400214,38.7676789 26.7099977,38.3129413 26.3837729,37.7544047 C26.2404316,37.5072647 26.0427196,37.2156394 25.9537492,37.101955 C25.6225815,36.6966453 24.6686209,36.3654776 23.9568576,36.4050201 C23.5120055,36.4297341 23.250037,36.5434185 22.5432165,36.9932134 C21.7424827,37.5023219 21.5645419,37.5814067 21.2185458,37.5814067 C21.0504906,37.5814067 20.7736937,37.5369215 20.5957529,37.4776079 C20.1756148,37.3441522 19.8395043,37.3441522 19.5429362,37.4726651 C19.2809678,37.5863495 18.7224313,37.9669452 18.0848099,38.4562825 C17.4768454,38.9307914 17.2346482,39.0247046 16.5723128,39.0543614 C15.499725,39.0988466 15.2525849,38.9011346 15.0894725,37.8878604 C14.9906165,37.2700102 14.8818749,37.0327558 14.3480524,36.2270792 C13.636289,35.1594342 13.4237486,35.0111502 12.4648452,34.9024085 C12.0545927,34.8579233 11.9063086,34.8579233 11.599855,34.9221797 C11.0858037,35.0309214 10.0033302,35.4411739 9.02959844,35.9008543 C7.64067135,36.5582469 7.22547607,36.6521601 5.66849374,36.6669885 C4.69970474,36.6768741 4.58107751,36.6867597 4.31416626,36.7905585 C4.047255,36.8943574 3.32066325,37.4084087 2.50510108,38.070744 C1.95150736,38.5205389 1.31388603,38.6836513 0.864091136,38.4809965 C0.40441064,38.2783416 0.221527002,37.8285468 0.221527002,36.8745862 C0.221527002,36.0787952 0.290726216,35.7377419 0.577408676,35.0852922 C0.705921503,34.7837813 0.873976738,34.3389292 0.948118754,34.096732 C1.1754876,33.3404834 1.41274205,32.9005741 1.79828053,32.5348068 C2.43590186,31.9367279 2.97466718,31.5759034 4.0620834,31.0272525 C4.63544832,30.7356273 5.22858445,30.4242308 5.38181128,30.3303176 C5.76240696,30.1029487 6.15783104,29.9447791 6.73613876,29.7964951 C7.32927489,29.6432682 7.68515656,29.6383254 8.94062802,29.7767239 C9.46456493,29.8360375 10.1516143,29.8854655 10.4630107,29.8904083 C10.9820049,29.8953511 11.0561469,29.8854655 11.3082297,29.7668383 C11.6443402,29.6086686 11.797567,29.4109566 11.797567,29.1391025 C11.797567,28.7634497 11.5059418,28.5410236 10.7348648,28.3136548 C10.0478155,28.1159427 9.89953143,28.0269723 9.37559452,27.5228066 C9.10868326,27.2657809 8.8121152,27.0186409 8.72314478,26.9790985 C8.62923156,26.9444989 8.27829269,26.8308145 7.94712502,26.7319584 C7.61101455,26.6331024 7.23041887,26.4996468 7.09696324,26.4304476 C6.83005198,26.2969919 6.04908942,25.6840846 5.34721167,25.0612917 C5.10007162,24.8388656 4.70959034,24.507698 4.47727869,24.3297571 C3.53320369,23.5833942 2.95489597,22.9556584 2.46555867,22.1499819 C2.32716024,21.922613 2.109677,21.6161594 1.98610697,21.4678753 C1.85759414,21.3195913 1.62033969,20.9192244 1.45722726,20.5781711 C1.29411483,20.2420607 1.07663158,19.8416938 0.972832759,19.688467 C0.686150299,19.2633861 0.592237079,19.0508456 0.478552655,18.5466799 C0.419239043,18.2896543 0.295669017,17.825031 0.206698599,17.5136345 C0.11772818,17.202238 0.0287577614,16.806814 0.00898655725,16.6437015 C-0.0354986521,16.2433346 0.0880713738,15.3684589 0.315440221,14.4985259 C0.409353441,14.1327586 0.552694671,13.5544509 0.631779487,13.2133976 C0.794891922,12.5115199 0.864091136,12.333579 1.32871443,11.5031884 C1.69942451,10.8359103 1.91690776,10.6035987 2.34693145,10.4058866 C3.21686443,10.0104625 4.09668301,10.3663442 4.44762189,11.2609912 C4.5168211,11.4488176 4.68981914,12.0419538 4.82327476,12.5708335 C5.12972843,13.7620485 5.16927084,13.8707901 5.66849374,14.943378 C5.89091979,15.4178869 6.15783104,16.0209086 6.26657267,16.2779342 C6.37531429,16.5349599 6.51865552,16.8364708 6.58291193,16.9452124 C6.78062397,17.2813229 8.11518025,18.5516227 8.63417436,18.8976188 C8.89120001,19.065674 9.26191009,19.3572993 9.44973653,19.5401829 C9.64250577,19.7230666 9.99344464,19.9998634 10.2356419,20.1580331 C10.9918905,20.6473704 11.8371094,21.3690193 12.1583915,21.8039858 C12.3116183,22.0165262 12.5043876,22.2488379 12.5785296,22.3229799 C12.6526716,22.3921791 13.0480957,22.6047196 13.463291,22.7974888 C14.0267703,23.0644001 14.2640247,23.1484277 14.4271372,23.1484277 C14.9461313,23.1484277 15.351441,22.5997768 15.2921274,21.9670982 C15.2723561,21.7347866 14.9065889,20.6671416 14.6594488,20.108605 C14.4172516,19.5648969 13.4188058,18.047457 13.1469517,17.8052598 C12.8800404,17.5729481 12.2572475,17.2961513 11.476285,17.0638396 C11.0956893,16.9501552 10.6854368,16.806814 10.5618668,16.7475003 C10.2751843,16.6041591 9.94401663,16.2482774 9.67710538,15.7984825 C9.38053732,15.2992596 9.2915669,15.0323484 9.17788247,14.3106994 C9.03948405,13.4555949 8.86648601,12.8229163 8.65394556,12.4225494 C8.55508954,12.234723 8.21403627,11.7552713 7.8878114,11.3499616 C7.56652934,10.9495947 7.24524727,10.5047426 7.17604806,10.371287 C6.95856481,9.93137772 6.8943084,9.47664002 6.9190224,8.56716463 C6.95856481,7.23755116 7.13156285,6.76304226 7.82355499,6.09576412 C8.41174831,5.5322848 8.75280159,5.29997315 9.60296336,4.87983506 C10.0181586,4.67718022 10.5371528,4.39049776 10.754636,4.24221373 C10.9721192,4.0939297 11.3131725,3.88138925 11.5108846,3.76770483 C11.9161942,3.53539318 12.2078195,3.31296713 12.5093304,3.00157067 C12.8256696,2.6802886 13.1074093,2.50234777 13.5176618,2.36889214 C13.8438866,2.26015051 14.5408216,2.10198088 15.0351017,2.02289606 Z M16.2263167,3.77759043 C15.8951491,3.57493559 15.4651254,3.6194208 15.1389005,3.88138925 C14.9708453,4.01484488 14.5358788,4.583267 14.2343679,5.0676615 C14.0959695,5.29008755 14.0712555,5.36917236 14.0712555,5.63608362 C14.0712555,6.0067937 14.1948255,6.41210338 14.4370228,6.82235587 C14.8077329,7.4550344 15.3415554,7.75160246 15.8951491,7.63791804 C16.4339144,7.52423362 16.7453109,7.17823754 16.9430229,6.4763598 C17.1456777,5.73988244 17.0764785,5.14180352 16.6810544,4.34106975 C16.5129992,4.00001648 16.4388572,3.90610326 16.2263167,3.77759043 Z M20.9417489,6.41210338 C20.7440369,6.33301857 20.4968968,6.27864775 20.2744708,6.26381935 C19.6912203,6.22427694 19.5281078,6.35773257 19.0634845,7.24249396 C18.6235752,8.08277013 18.6087468,8.4139378 18.9745141,8.96258872 C19.2117686,9.32341319 19.5824786,9.62986686 19.8642183,9.70895167 C20.1261868,9.77815089 20.4968968,9.65952366 21.0504906,9.32341319 C21.6930547,8.93787471 21.9006523,8.48807982 21.7919107,7.70217445 C21.7276543,7.22766555 21.5843131,6.85695548 21.3915438,6.66912904 C21.3174018,6.59992982 21.114747,6.4862454 20.9417489,6.41210338 Z M11.9310226,7.25732236 C11.7530818,7.17329474 11.5899694,7.13375233 11.4021429,7.13869513 C10.7002652,7.14363794 9.83033221,7.67746045 9.74136179,8.15691215 C9.64744857,8.65119225 9.83033221,9.12075835 10.3097839,9.60515285 C10.8436064,10.148861 11.3774289,10.3268018 12.3116183,10.2872594 C12.7218708,10.2674882 12.8701548,10.2427742 13.0579813,10.1439182 C13.6461746,9.8522929 13.5918038,9.24432837 12.8948689,8.21128296 C12.5587584,7.71700286 12.2424191,7.40066359 11.9310226,7.25732236 Z M19.9630743,11.513074 C19.7159343,11.4339892 19.0239421,11.3746756 18.8163445,11.414218 C18.4505772,11.48836 18.2924076,11.5575593 18.0996383,11.7355001 C17.7981275,12.012297 17.7042143,12.284151 17.7091571,12.8426875 C17.7140999,13.6187073 17.9167547,14.0783878 18.3467784,14.295871 C18.6828889,14.4688691 19.3353386,14.4738119 19.7801907,14.3008138 C20.1607864,14.1525298 20.3634412,13.9350466 20.6105813,13.4209952 C20.9565773,12.6795751 20.9071493,12.2297802 20.442526,11.8096421 C20.3041276,11.6860721 20.09653,11.5575593 19.9630743,11.513074 Z M14.2788531,11.8294133 C14.0465415,11.7206717 13.4237486,11.6564153 13.1321233,11.7107861 C12.6675,11.7997565 12.2918471,12.037011 12.1287347,12.3385218 C12.0348215,12.5164627 12.0199931,12.6202615 12.0199931,13.0651136 C12.0249359,13.6582497 12.1237919,13.9696462 12.4055315,14.2415002 C12.741642,14.5677251 13.4089202,14.7258947 14.0910267,14.6418671 C14.5457644,14.5874963 14.7583048,14.4441551 14.9362457,14.0783878 C15.0647585,13.8213621 15.0697013,13.7719341 15.0499301,13.3221392 C15.0054449,12.5263483 14.7632476,12.0567822 14.2788531,11.8294133 Z M27.174621,13.425938 C26.828625,13.1936264 26.1465184,13.3320248 25.6670667,13.7274489 C25.0937018,14.197015 24.7971337,14.8198079 24.7279345,15.7095121 C24.4709089,19.0953308 24.4461949,19.3721277 24.2484828,20.2816031 C24.144684,20.7610548 24.144684,20.8351968 24.1990548,21.2701633 C24.5401081,23.909619 24.5401081,24.7004672 24.2039976,26.0646803 C24.0408852,26.741844 23.9964,27.1224397 24.0557136,27.3448658 C24.1743408,27.7946607 24.7032205,28.1505423 25.2568142,28.1555752 C25.7412087,28.1604279 26.00812,27.9627159 26.3442305,27.3498086 C26.4430865,27.1718677 26.6259701,26.9049565 26.7495401,26.7566724 C27.3327907,26.0498519 27.4019899,25.8274258 27.3377335,24.853694 C27.2734771,23.835477 27.2883055,23.4252245 27.4217611,22.9260016 C27.5354455,22.4910351 27.5354455,22.4218359 27.5601595,19.836751 C27.5700451,18.3835675 27.5799307,16.4805891 27.5848735,15.6106561 L27.5898163,14.0289598 L27.4662463,13.7818197 C27.3970471,13.6434213 27.2685343,13.4852517 27.174621,13.425938 Z M18.0502103,16.4361039 C17.7486995,16.3471335 17.412589,16.2779342 17.3087902,16.2779342 C16.9281945,16.282877 16.6266836,16.4904747 16.270802,16.9946404 C15.7913503,17.6668613 15.7369794,18.0276858 16.0187191,18.7295636 C16.1126323,18.9618752 16.2510308,19.3572993 16.32023,19.6044393 C16.5278276,20.3162027 16.7304825,20.7017412 17.1605061,21.1960213 C17.4719026,21.5568457 17.6053582,21.7644434 17.8623839,22.3081515 C18.183666,22.9754296 18.6828889,23.7415638 19.0486561,24.1122739 C19.152455,24.2259583 19.4094806,24.4434416 19.6170783,24.5966684 C20.145958,24.9970353 20.2398712,25.1552049 20.5660961,26.2129643 C20.7736937,26.8802425 20.9071493,27.1323253 21.1345182,27.2855521 C21.5991415,27.6018914 22.0983644,27.2064673 22.1675636,26.46999 C22.2120488,26.0251379 22.1527352,25.0662345 22.0291652,24.3001003 C21.8759383,23.3560253 21.8017963,20.8450824 21.8759383,19.3671849 C21.9896228,17.0737252 21.9154807,16.5942735 21.4162578,16.3570191 C21.1691178,16.2433346 20.9516345,16.258163 20.4375832,16.4361039 C20.0075595,16.5843879 19.9334175,16.5942735 19.2859106,16.5942735 C18.6532321,16.5942735 18.5494332,16.5794451 18.0502103,16.4361039 Z M5.67343654,18.8037056 C4.84304597,18.6059935 4.58602031,18.6801355 4.54647791,19.1249876 C4.5267067,19.3226997 4.55142071,19.4462697 4.67993353,19.762609 C4.76890395,19.9800922 4.90730238,20.3359739 4.9863872,20.5534571 C5.22858445,21.2207353 5.44112489,21.4975321 5.960119,21.8435282 C6.06886062,21.9127274 6.28140107,22.1351535 6.4296851,22.3328655 C6.57796913,22.5305776 6.83993759,22.8123172 7.00799282,22.9556584 C7.18099086,23.1039425 7.49733012,23.3906249 7.71481337,23.5982226 C8.17943667,24.0282463 8.42657672,24.2061871 8.91591402,24.4533272 C9.12845446,24.557126 9.43490813,24.7746092 9.65733417,24.9772641 C9.96378784,25.2590037 10.1862139,25.402345 10.7744072,25.698913 C11.3527149,25.9905383 11.5850266,26.1437651 11.8618234,26.395848 C12.2374763,26.741844 12.5389872,26.9543845 12.9788965,27.1718677 C13.1321233,27.2509525 13.3940918,27.4585502 13.6016894,27.6760334 C14.0663127,28.1554851 14.2887387,28.2543411 14.8868177,28.2543411 C15.4552398,28.2543411 15.8457211,28.1455995 16.0187191,27.9380019 C16.2362023,27.6809762 16.1719459,27.463493 15.746865,26.9494417 C15.648009,26.8258717 15.4799538,26.5589604 15.376155,26.3563056 C15.1438433,25.8867395 14.9708453,25.6692562 14.6495632,25.4418874 C14.506222,25.3430313 14.1948255,25.0514061 13.9476855,24.804266 C13.537433,24.3841279 13.4731766,24.3396427 13.1568373,24.2358439 C12.5884152,24.0529603 12.2671331,23.860191 11.8914802,23.4944238 C11.5108846,23.1187709 11.2192593,22.9309444 10.5618668,22.6343764 C10.0725295,22.4119503 9.93413103,22.3229799 9.59307776,22.0066406 C9.44973653,21.873185 9.14822567,21.6458162 8.91591402,21.4975321 C8.64405996,21.3195913 8.42163392,21.1317649 8.30300669,20.9735952 C8.19920787,20.8401396 8.03609544,20.6177136 7.93229661,20.4842579 C7.83344059,20.3557451 7.57147214,20.1184906 7.35398889,19.9652638 C7.13156285,19.8070942 6.85970879,19.5698397 6.74108156,19.4363841 C6.4346279,19.0755596 6.17265945,18.91739 5.67343654,18.8037056 Z M10.7002652,31.0223097 C10.4877247,30.9481677 9.89458862,30.9531105 9.40030852,31.0321953 C9.18282528,31.0717377 8.67371677,31.1261085 8.26346428,31.1557654 C7.00305002,31.2447358 6.72131036,31.3238206 6.02437541,31.7785583 C5.62895133,32.0355839 5.21375605,32.2036392 4.64533393,32.3370948 C4.31416626,32.4161796 3.96817019,32.6386057 3.85448576,32.8462033 C3.71114453,33.1180574 3.74080134,33.5530239 3.93357058,33.9435051 C4.29439505,34.6750397 4.76890395,34.8282665 5.59435173,34.4723848 C5.92551939,34.3339864 6.30611507,34.2351304 8.59957475,33.6815367 C9.16305407,33.5480811 9.7660758,33.3701402 9.93413103,33.2910554 C10.4827819,33.0389725 11.1055749,32.356866 11.2093737,31.9070711 C11.2934013,31.536361 11.0759181,31.1607082 10.7002652,31.0223097 Z" id="Shape" fill="#222222" fill-rule="nonzero"></path>
        </g>
    </g>
</svg>